<?xml version="1.0" encoding="utf-8"?>
<!-- Generator: Adobe Illustrator 25.2.3, SVG Export Plug-In . SVG Version: 6.00 Build 0)  -->
<svg version="1.1" id="Layer_1" xmlns="http://www.w3.org/2000/svg" xmlns:xlink="http://www.w3.org/1999/xlink" x="0px" y="0px"
	 viewBox="0 0 100 45" style="enable-background:new 0 0 100 45;" xml:space="preserve">
<style type="text/css">
	.st0{fill:#7C3AED;}
	.st1{fill:#6D28D9;}
	.st2{opacity:0.5;}
	.st3{fill:#5B21B6;}
</style>
<rect y="0" class="st0" width="100" height="45"/>
<path class="st1" d="M98.8,18c-1.4-0.3-2.6,0.8-4,1.1c-1.6,0.6-3.4,0.8-4.6,2c-2.2-1-5,0.8-6.9-0.9c-1.5,0.5-3.1,0.8-4.8,0.2
	c-1.3,0.1-2.6-0.4-3.7-0.4c-0.6,0.4-1.3,0.9-2,1.1c-0.9,0.6-1.5,1.8-2.7,1.4c-1.1-0.6-1.7,0.3-2.7,0.3c-0.7-0.4-1-0.1-1.4,0.5
	c-0.3,0.4-0.4,0.2-0.9,0.2c-1.2-0.5-2.4-0.5-3.7-0.6c-1,0-2.1-0.1-2.9,0.4c-1.2-0.1-2.5-0.5-3.8-0.8c-0.4-0.3-0.8-0.2-1,0.3
	c-0.7,0.3-1.5,0.3-2.2,0.3c-5.9,2-7.4,1-13.1-0.5c-0.9-0.1-1.7-0.4-2.5-0.5c-0.9,0.1-1.7,0.6-2.6,0.7c-2.6-1.5-5.8-0.5-8.3-1.6
	c-1.2,1.9-2.8,2.3-4.8,1.1c-1.1,0-2.3,0.4-3.3-0.1c-0.5,0.3-1,0.7-1.7,0.6c-1.2-0.2-2.4-0.4-3.6-0.7c-0.5-0.3-1.2-0.5-1.7,0.1
	c-0.3,0.6-1,0.3-1.5,0.1c-1.1-0.6-2.4,0-3.6-0.4c-2-0.4-2.7,2.8-4.8,3C0,29.3,0,40.5,0,45h100c0-7.4,0-19.7,0-27
	C99.6,18,99.2,18,98.8,18z"/>
<g class="st2">
	<path class="st3" d="M100,33.1v-0.3C99.8,33.1,99.6,33.1,100,33.1z"/>
	<path class="st3" d="M100,33.2c-0.4,0.3-0.8,0.4-0.1,0.4c-0.4,0.2-0.7,0.3-0.1,0.4c-0.1,0.4-1.2,0.6-0.3,0.7
		c-0.2,0.4-1.2,0.3-0.7-0.1c0.6-0.2,0-0.3-0.2-0.5c1.9-0.5-0.3-0.3-0.7-1.3c0.2,0.2,1.2,0.3,1.4,0.2c-0.5-0.1-1.3-0.4-1.3-0.7
		c0.7,0.3,1.1-0.1,0.1-0.4c0.4-0.1-0.6-0.7-0.5-1c0,0,0.1,0.2,0.3,0.2c-0.4-0.6-0.5-1.1-0.7-1.6c-0.1,0.3-0.2,1-0.6,1.3
		c0,0,0.1,0.1,0.4-0.1c-1.2,0.7,0.7,0.6-1.3,0.8c0.1,0.2,0.5,0.2,0.5,0.2s-0.3,0.2-0.9,0.1c0.3,0.2,0.6,0.3,1,0.2
		c-0.1,0.2,0.3,0.3,0.3,0.3c-0.8,0.1-1.9,0.4-0.1,0.7C96,33.5,95,33.6,95,33.6s0.4,0.4,0.7,0.3c-0.1,0.2-0.3,0.3-0.3,0.3
		s0.3,0.2,0.9-0.1c-0.4,0.1-0.7,0.5-1.1,0.4c0.3,0.2,0.7,0.3,1.3,0.1c-0.3,0.7-2.3,0.1-1.9,0.5c-0.3,0-0.4-0.1-0.8-0.4
		c0.3-0.1,1.1-0.1,1.2-0.6c-0.5,0.2-1.1,0.1-1.4-0.3c0.1,0,0.6,0,0.7-0.1c0,0-0.2,0-0.3-0.1c0.1,0,0.3-0.2,0.3-0.2
		c-0.3,0.1-0.5,0.2-0.8-0.1c0.6-0.2,0-0.2-0.1-0.4c0.1-0.3-0.1-0.8-0.3-1c-0.1,0.4,0,0.9-0.1,1.2c-0.2,0.3-0.7,0.4-0.1,0.5
		c-0.2,0.1-0.1,0.2-0.5,0.6c-0.8,0.5-0.5,0.2-0.1,0.6c-0.5,0.1-1-0.6-0.9-0.6c0.4,0.1,0.8,0.1,0.2-0.3c1.2-0.5,0.7-0.3-0.2-0.8
		c0.1,0,0.7-0.1,0.7-0.2c0,0,0,0-0.1,0c0,0,0-0.1,0-0.1c-0.1,0.1-0.9-0.4-1.1-0.5c0.7,0,0.1-0.3-0.1-0.4c-0.5-0.9-0.5-1.8-0.8-0.3
		c-0.1,0.3-0.5,0.7,0,0.5c0,0,0,0.1,0.1,0.1c-0.3,0.4-1,0.7-0.2,0.6c-0.3,0.2-0.4,0.3,0.1,0.3c-0.3,0.6-2.4,1-0.5,1l-0.1,0.1l0.2,0
		c-0.1,0.6-1.9,0.4-1.3,0.8c-0.1,0-0.6-0.3-0.2-0.4c-0.3-0.1,0.7-0.2,0.8-0.4c-0.4-0.1-1.2-0.4-1.2-0.7c0.4,0.1,0.8,0.1,1.1-0.2
		c-0.2,0.1-0.6,0-0.6,0c0.4-0.2,0.7-0.3,0.9-0.8c-0.6,0.6-1.5,0.3-1.9,0c1.4-0.3-0.3-0.5-0.1-0.8c0.7,0.1,0.2-0.4-0.1-0.5
		c0.4-0.2-0.5-0.9-0.3-1.3c0,0.6-0.9,2.1-0.2,2c-0.3,0.3-1,0.2-0.4,0.7c-0.2,0.3-1.6,0.4-0.7,0.9c0,0-0.3,0.2-0.7,0.4
		c0.7,0.2,1,0,1.7-0.6c0,0.6-1.4,1.2-1.1,1.3c-0.9,0.1,0.1,0.3,0.6,0.1c-0.3,0.3-0.8,1.3-1.3,0.7c1.1-0.3,0.3-0.2-0.1-0.6
		c0.2-0.1,0-0.2,0-0.2c1-0.2-0.3-0.3-0.5-0.6c0.1,0.1,0.7-0.1,0.2-0.1c0.8-0.4-0.2-0.1-0.3-0.4c0.7,0,0.1-0.2,0-0.3
		c0.9-0.1,0-0.2-0.2-0.4c0.1,0.1-0.3-1-0.2-1.3c0.2,0.4-0.8,1.7-0.2,1.4c-0.3,0.4-1,0.4-0.2,0.5c-0.4,0.2-0.7,0.3-0.1,0.4
		c-0.1,0.4-1.2,0.6-0.3,0.7c-0.2,0.4-1.2,0.3-0.7-0.1c0.6-0.2,0-0.3-0.2-0.5c1.9-0.5-0.3-0.3-0.7-1.3c0.2,0.2,1.2,0.3,1.4,0.2
		c-0.5-0.1-1.3-0.4-1.3-0.7c0.7,0.3,1.1-0.1,0.1-0.4c0.4-0.1-0.6-0.7-0.5-1c0,0,0.1,0.2,0.3,0.2c-0.4-0.6-0.5-1.1-0.7-1.6
		c-0.1,0.3-0.2,1-0.6,1.3c0,0,0.1,0.1,0.4-0.1c-1.2,0.7,0.7,0.6-1.3,0.8c0.1,0.2,0.5,0.2,0.5,0.2s-0.3,0.2-0.9,0.1
		c0.3,0.2,0.6,0.3,1,0.2c-0.1,0.2,0.3,0.3,0.3,0.3c-0.8,0.1-1.9,0.4-0.1,0.7c-0.5,0.5-1.5,0.6-1.5,0.6s0.4,0.4,0.7,0.3
		c-0.1,0.2-0.3,0.3-0.3,0.3s0.3,0.2,0.9-0.1c-0.4,0.1-0.7,0.5-1.1,0.4c0.3,0.2,0.7,0.3,1.3,0.1c-0.3,0.7-2.3,0.1-1.9,0.5
		c-0.3,0-0.4-0.1-0.8-0.4c0.3-0.1,1.1-0.1,1.2-0.6c-0.5,0.2-1.1,0.1-1.4-0.3c0.1,0,0.6,0,0.7-0.1c0,0-0.2,0-0.3-0.1
		c0.1,0,0.3-0.2,0.3-0.2c-0.3,0.1-0.5,0.2-0.8-0.1c0.6-0.2,0-0.2-0.1-0.4c0.1-0.3-0.1-0.8-0.3-1c-0.1,0.4,0,0.9-0.1,1.2
		c-0.2,0.3-0.7,0.4-0.1,0.5c-0.2,0.1-0.1,0.2-0.5,0.6c-0.8,0.5-0.5,0.2-0.1,0.6c-0.5,0.1-1-0.6-0.9-0.6c0.4,0.1,0.8,0.1,0.2-0.3
		c1.2-0.5,0.7-0.3-0.2-0.8c0.1,0,0.7-0.1,0.7-0.2c0,0,0,0-0.1,0c0,0,0-0.1,0-0.1c-0.1,0.1-0.9-0.4-1.1-0.5c0.7,0,0.1-0.3-0.1-0.4
		c-0.5-0.9-0.5-1.8-0.8-0.3c-0.1,0.3-0.5,0.7,0,0.5c0,0,0,0.1,0.1,0.1c-0.3,0.4-1,0.7-0.2,0.6c-0.3,0.2-0.4,0.3,0.1,0.3
		c-0.2,0.2-0.5,0.5-0.7,0.5c-0.1-1.2-0.4,0-0.6,0.4c-0.1,0.2-0.8,0.2-0.3,0.5c0,0,0,0-0.1,0c0,0,0,0,0,0c0,0-0.3,0-0.3,0
		c0,0,0,0,0,0c0,0-0.1,0-0.1,0c0.5-0.3-0.2-0.2-0.3-0.5c-0.1-0.3-0.4-1.5-0.6-0.4c-0.2-0.1-0.5-0.3-0.7-0.5c0.6,0,0.4-0.1,0.1-0.3
		c0.9,0,0.2-0.3-0.2-0.6c0.1,0,0.1-0.1,0.1-0.1c0.6,0.4-0.3-1.3-0.3-1.5c-0.2,0.3-0.2,1-0.5,1.3c-0.2,0.1-0.8,0.4-0.1,0.4
		c-0.2,0.2-0.9,0.6-1.1,0.5c0,0,0,0.1,0,0.1c-0.1,0-0.1,0-0.1,0c0,0.1,0.6,0.2,0.7,0.2c-0.9,0.5-1.4,0.3-0.2,0.8
		c-0.6,0.4-0.1,0.4,0.2,0.3c0-0.1-0.4,0.6-0.9,0.6c0.4-0.4,0.8-0.1-0.1-0.6c-0.4-0.4-0.3-0.5-0.5-0.6c0.7-0.1,0.2-0.2-0.1-0.5
		c-0.1-0.3,0-0.8-0.1-1.2c-0.1,0.2-0.3,0.7-0.3,1c-0.1,0.2-0.7,0.2-0.1,0.4c-0.3,0.3-0.5,0.2-0.8,0.1c0,0,0.2,0.2,0.3,0.2
		c-0.1,0.1-0.3,0.1-0.3,0.1c0.1,0.1,0.6,0.1,0.7,0.1c-0.4,0.4-1,0.5-1.4,0.3c0.2,0.5,0.9,0.5,1.2,0.6c-0.3,0.3-0.5,0.4-0.8,0.4
		c0.4-0.4-1.5,0.2-1.9-0.5c0.6,0.2,1,0.1,1.3-0.1c-0.3,0-0.7-0.3-1.1-0.4c0.6,0.2,0.9,0.1,0.9,0.1s-0.3-0.1-0.3-0.3
		c0.3,0,0.7-0.3,0.7-0.3s-1-0.1-1.5-0.6c1.8-0.3,0.8-0.6-0.1-0.7c0,0,0.4,0,0.3-0.3c0.5,0.1,0.8,0.1,1-0.2c-0.6,0.1-0.9-0.1-0.9-0.1
		s0.3,0,0.5-0.2c-0.1,0-1-0.1-1-0.2c0.5-0.2,0.3-0.2-0.2-0.6c0.3,0.2,0.4,0.1,0.4,0.1c-0.4-0.2-0.5-0.9-0.6-1.3
		c-0.2,0.5-0.3,0.9-0.7,1.6c0.2-0.1,0.3-0.2,0.3-0.2c0.1,0.4-1,0.9-0.5,1c-1,0.3-0.6,0.7,0.1,0.4c-0.1,0.3-0.9,0.6-1.3,0.7
		c0.3,0.1,1.2,0,1.4-0.2c-0.4,0.9-2.6,0.8-0.7,1.3c-0.2,0.2-0.8,0.3-0.2,0.5c0.4,0.4-0.5,0.5-0.7,0.1c0.9-0.1-0.2-0.3-0.3-0.7
		c0.5-0.1,0.2-0.2-0.1-0.4c0.8-0.1,0.2-0.1-0.2-0.5c0.6,0.2-0.4-1-0.2-1.4c0,0.4-0.3,1.2-0.2,1.3c-0.2,0.2-1.1,0.2-0.2,0.4
		c0,0.1-0.7,0.3,0,0.3c0,0.2-1,0.1-0.5,0.3c0.3,0.1,0.1,0.1,0,0.1c-0.1,0.1,0.4,0.1,0.4,0.1c-0.2,0.3-1.5,0.4-0.5,0.6
		c0,0-0.1,0.2,0,0.2c-0.4,0.4-1.1,0.3-0.1,0.6c-0.5,0.6-1-0.4-1.3-0.7c0.5,0.2,1.5,0,0.6-0.1c0.3-0.1-1.1-0.7-1.1-1.3
		c0.7,0.6,0.9,0.8,1.7,0.6c-0.4-0.1-0.7-0.4-0.7-0.4c0.9-0.4-0.5-0.5-0.7-0.9c0.7-0.5-0.1-0.4-0.4-0.7c0.7,0.1-0.3-1.4-0.2-2
		c0.1,0.4-0.7,1.2-0.3,1.3c-0.4,0.2-0.7,0.7,0,0.5c-0.4,0.4-1.3,0.5-0.2,0.7c-0.5,0.2-1.3,0.5-1.9,0c0.2,0.5,0.5,0.6,0.9,0.8
		c-0.1,0.1-0.4,0.1-0.6,0c0.3,0.3,0.7,0.3,1.1,0.2c-0.1,0.4-0.9,0.7-1.3,0.7c0.1,0.2,0.7,0.3,0.9,0.3c0,0.1-0.1,0.1-0.1,0.1
		c0.4,0.1,0,0.3-0.1,0.4c0.5-0.4-1.3-0.2-1.3-0.8l0.2,0l-0.1-0.1c1.9,0-0.2-0.5-0.5-1c0.6,0,0.4-0.1,0.1-0.3c0.9,0,0.2-0.3-0.2-0.6
		c0.1,0,0.1-0.1,0.1-0.1c0.6,0.4-0.3-1.3-0.3-1.5c-0.2,0.3-0.2,1-0.5,1.3c-0.2,0.1-0.8,0.4-0.1,0.4c-0.2,0.2-0.9,0.6-1.1,0.5
		c0,0,0,0.1,0,0.1c-0.1,0-0.1,0-0.1,0c0,0.1,0.6,0.2,0.7,0.2c-0.9,0.5-1.4,0.3-0.2,0.8c-0.6,0.4-0.1,0.4,0.2,0.3
		c0-0.1-0.4,0.6-0.9,0.6c0.4-0.4,0.8-0.1-0.1-0.6c-0.4-0.4-0.3-0.5-0.5-0.6c0.7-0.1,0.2-0.2-0.1-0.5c-0.1-0.3,0-0.8-0.1-1.2
		c-0.1,0.2-0.3,0.7-0.3,1c-0.1,0.2-0.7,0.2-0.1,0.4c-0.3,0.3-0.5,0.2-0.8,0.1c0,0,0.2,0.2,0.3,0.2c-0.1,0.1-0.3,0.1-0.3,0.1
		c0.1,0.1,0.6,0.1,0.7,0.1c-0.4,0.4-1,0.5-1.4,0.3c0.2,0.5,0.9,0.5,1.2,0.6c-0.3,0.3-0.5,0.4-0.8,0.4c0.4-0.4-1.5,0.2-1.9-0.5
		c0.6,0.2,1,0.1,1.3-0.1c-0.3,0-0.7-0.3-1.1-0.4c0.6,0.2,0.9,0.1,0.9,0.1s-0.3-0.1-0.3-0.3c0.3,0,0.7-0.3,0.7-0.3s-1-0.1-1.5-0.6
		c1.8-0.3,0.8-0.6-0.1-0.7c0,0,0.4,0,0.3-0.3c0.5,0.1,0.8,0.1,1-0.2c-0.6,0.1-0.9-0.1-0.9-0.1s0.3,0,0.5-0.2c-0.1,0-1-0.1-1-0.2
		c0.5-0.2,0.3-0.2-0.2-0.6c0.3,0.2,0.4,0.1,0.4,0.1c-0.4-0.2-0.5-0.9-0.6-1.3c-0.2,0.5-0.3,0.9-0.7,1.6c0.2-0.1,0.3-0.2,0.3-0.2
		c0.1,0.4-1,0.9-0.5,1c-1,0.3-0.6,0.7,0.1,0.4c-0.1,0.3-0.9,0.6-1.3,0.7c0.3,0.1,1.2,0,1.4-0.2c-0.4,0.9-2.6,0.8-0.7,1.3
		c-0.2,0.2-0.8,0.3-0.2,0.5c0.4,0.4-0.5,0.5-0.7,0.1c0.9-0.1-0.2-0.3-0.3-0.7c0.5-0.1,0.2-0.2-0.1-0.4c0.8-0.1,0.2-0.1-0.2-0.5
		c0.6,0.2-0.4-1-0.2-1.4c0,0.4-0.3,1.2-0.2,1.3c-0.2,0.2-1.1,0.2-0.2,0.4c0,0.1-0.7,0.3,0,0.3c0,0.2-1,0.1-0.5,0.3
		c0.3,0.1,0.1,0.1,0,0.1c-0.1,0.1,0.4,0.1,0.4,0.1c-0.2,0.3-1.5,0.4-0.5,0.6c0,0-0.1,0.2,0,0.2c-0.4,0.4-1.1,0.3-0.1,0.6
		c-0.5,0.6-1-0.4-1.3-0.7c0.5,0.2,1.5,0,0.6-0.1c0.3-0.1-1.1-0.7-1.1-1.3c0.7,0.6,0.9,0.8,1.7,0.6c-0.4-0.1-0.7-0.4-0.7-0.4
		c0.9-0.4-0.5-0.5-0.7-0.9c0.7-0.5-0.1-0.4-0.4-0.7c0.7,0.1-0.3-1.4-0.2-2c0.1,0.4-0.7,1.2-0.3,1.3c-0.4,0.2-0.7,0.7,0,0.5
		c-0.4,0.4-1.3,0.5-0.2,0.7c-0.5,0.2-1.3,0.5-1.9,0c0.2,0.5,0.5,0.6,0.9,0.8c-0.1,0.1-0.4,0.1-0.6,0c0.3,0.4,0.9,0.2,1.3,0.3
		c-0.3,0.2-1,0.7-1.4,0.7c0.1,0.4,1.6,0.1,0.8,0.4c0.2,0.1,0.6,0.1,0.6,0.1c-0.4,0.3-1.5,1.1-1.8,0.3c0.9,0.1,0-0.5-0.1-0.9
		c0-0.6-0.2-1.9-0.5-0.3c-0.2,0.4-0.9,0.3-0.4,0.5c-0.6,0-0.1,0.1,0.1,0.1c0.1,0.2,0,0.4-0.3,0.5c0.5-0.4-1.3-0.2-1.3-0.8l0.2,0
		l-0.1-0.1c1.9,0-0.2-0.5-0.5-1c0.6,0,0.4-0.1,0.1-0.3c0.9,0,0.2-0.3-0.2-0.6c0.1,0,0.1-0.1,0.1-0.1c0.6,0.4-0.3-1.3-0.3-1.5
		c-0.2,0.3-0.2,1-0.5,1.3c-0.2,0.1-0.8,0.4-0.1,0.4c-0.2,0.2-0.9,0.6-1.1,0.5c0,0,0,0.1,0,0.1c-0.1,0-0.1,0-0.1,0
		c0,0.1,0.6,0.2,0.7,0.2c-0.9,0.5-1.4,0.3-0.2,0.8c-0.6,0.4-0.1,0.4,0.2,0.3c0-0.1-0.4,0.6-0.9,0.6c0.4-0.4,0.8-0.1-0.1-0.6
		c-0.4-0.4-0.3-0.5-0.5-0.6c0.7-0.1,0.2-0.2-0.1-0.5c-0.1-0.3,0-0.8-0.1-1.2c-0.1,0.2-0.3,0.7-0.3,1c-0.1,0.2-0.7,0.2-0.1,0.4
		c-0.3,0.3-0.5,0.2-0.8,0.1c0,0,0.2,0.2,0.3,0.2c-0.1,0.1-0.3,0.1-0.3,0.1c0.1,0.1,0.6,0.1,0.7,0.1c-0.4,0.4-1,0.5-1.4,0.3
		c0.2,0.5,0.9,0.5,1.2,0.6c-0.3,0.3-0.5,0.4-0.8,0.4c0.4-0.4-1.5,0.2-1.9-0.5c0.6,0.2,1,0.1,1.3-0.1c-0.3,0-0.7-0.3-1.1-0.4
		c0.6,0.2,0.9,0.1,0.9,0.1s-0.3-0.1-0.3-0.3c0.3,0,0.7-0.3,0.7-0.3s-1-0.1-1.5-0.6c1.8-0.3,0.8-0.6-0.1-0.7c0,0,0.4,0,0.3-0.3
		c0.5,0.1,0.8,0.1,1-0.2c-0.6,0.1-0.9-0.1-0.9-0.1s0.3,0,0.5-0.2c-0.1,0-1-0.1-1-0.2c0.5-0.2,0.3-0.2-0.2-0.6
		c0.3,0.2,0.4,0.1,0.4,0.1c-0.4-0.2-0.5-0.9-0.6-1.3c-0.2,0.5-0.3,0.9-0.7,1.6c0.2-0.1,0.3-0.2,0.3-0.2c0.1,0.4-1,0.9-0.5,1
		c-1,0.3-0.6,0.7,0.1,0.4c-0.1,0.3-0.9,0.6-1.3,0.7c0.3,0.1,1.2,0,1.4-0.2c-0.4,0.9-2.6,0.8-0.7,1.3c-0.2,0.2-0.8,0.3-0.2,0.5
		c0.4,0.4-0.5,0.5-0.7,0.1c0.9-0.1-0.2-0.3-0.3-0.7c0.5-0.1,0.2-0.2-0.1-0.4c0.8-0.1,0.2-0.1-0.2-0.5c0.6,0.2-0.4-1-0.2-1.4
		c0,0.4-0.3,1.2-0.2,1.3c-0.2,0.2-1.1,0.2-0.2,0.4c0,0.1-0.7,0.3,0,0.3c0,0.2-1,0.1-0.5,0.3c0.3,0.1,0.1,0.1,0,0.1
		c-0.1,0.1,0.4,0.1,0.4,0.1c-0.2,0.3-1.5,0.4-0.5,0.6c0,0-0.1,0.2,0,0.2c-0.4,0.4-1.1,0.3-0.1,0.6c-0.5,0.6-1-0.4-1.3-0.7
		c0.5,0.2,1.5,0,0.6-0.1c0.3-0.1-1.1-0.7-1.1-1.3c0.7,0.6,0.9,0.8,1.7,0.6c-0.4-0.1-0.7-0.4-0.7-0.4c0.9-0.4-0.5-0.5-0.7-0.9
		c0.7-0.5-0.1-0.4-0.4-0.7c0.7,0.1-0.3-1.4-0.2-2c0.1,0.4-0.7,1.2-0.3,1.3c-0.4,0.2-0.7,0.7,0,0.5c-0.4,0.4-1.3,0.5-0.2,0.7
		c-0.5,0.2-1.3,0.5-1.9,0c0.2,0.5,0.5,0.6,0.9,0.8c-0.1,0.1-0.4,0.1-0.6,0c0.3,0.4,0.9,0.2,1.3,0.3c-0.3,0.2-1,0.7-1.4,0.7
		c0.1,0.4,1.6,0.1,0.8,0.4c0.2,0.1,0.6,0.1,0.6,0.1c-0.4,0.3-1.2,0.8-1.7,0.8c0.6-0.2-0.6-0.1-0.6-0.6c0.9,0.1,0-0.5-0.1-0.9
		c0-0.6-0.2-1.9-0.5-0.3c-0.2,0.4-0.9,0.3-0.4,0.5c-0.6,0-0.1,0.1,0.1,0.1c0.1,0.2,0,0.4-0.3,0.5c0.5-0.4-1.3-0.2-1.3-0.8l0.2,0
		l-0.1-0.1c1.9,0-0.2-0.5-0.5-1c0.6,0,0.4-0.1,0.1-0.3c0.9,0,0.2-0.3-0.2-0.6c0.1,0,0.1-0.1,0.1-0.1c0.6,0.4-0.3-1.3-0.3-1.5
		c-0.2,0.3-0.2,1-0.5,1.3c-0.2,0.1-0.8,0.4-0.1,0.4c-0.2,0.2-0.9,0.6-1.1,0.5c0,0,0,0.1,0,0.1c-0.1,0-0.1,0-0.1,0
		c0,0.1,0.6,0.2,0.7,0.2c-0.9,0.5-1.4,0.3-0.2,0.8c-0.6,0.4-0.1,0.4,0.2,0.3c0-0.1-0.4,0.6-0.9,0.6c0.4-0.4,0.8-0.1-0.1-0.6
		c-0.4-0.4-0.3-0.5-0.5-0.6c0.7-0.1,0.2-0.2-0.1-0.5c-0.1-0.3,0-0.8-0.1-1.2c-0.1,0.2-0.3,0.7-0.3,1c-0.1,0.2-0.7,0.2-0.1,0.4
		c-0.3,0.3-0.5,0.2-0.8,0.1c0,0,0.2,0.2,0.3,0.2c-0.1,0.1-0.3,0.1-0.3,0.1c0.1,0.1,0.6,0.1,0.7,0.1c-0.4,0.4-1,0.5-1.4,0.3
		c0.2,0.5,0.9,0.5,1.2,0.6c-0.3,0.3-0.5,0.4-0.8,0.4c0.4-0.4-1.5,0.2-1.9-0.5c0.6,0.2,1,0.1,1.3-0.1c-0.3,0-0.7-0.3-1.1-0.4
		c0.6,0.2,0.9,0.1,0.9,0.1S8.9,34.1,8.8,34c0.3,0,0.7-0.3,0.7-0.3S8.5,33.5,8,33c1.8-0.3,0.8-0.6-0.1-0.7c0,0,0.4,0,0.3-0.3
		c0.5,0.1,0.8,0.1,1-0.2c-0.6,0.1-0.9-0.1-0.9-0.1s0.3,0,0.5-0.2c-0.1,0-1-0.1-1-0.2c0.5-0.2,0.3-0.2-0.2-0.6
		C7.8,30.9,8,30.8,8,30.8c-0.4-0.2-0.5-0.9-0.6-1.3c-0.2,0.5-0.3,0.9-0.7,1.6C6.8,31.1,7,30.9,7,30.9c0.1,0.4-1,0.9-0.5,1
		c-1,0.3-0.6,0.7,0.1,0.4c-0.1,0.3-0.9,0.6-1.3,0.7c0.3,0.1,1.2,0,1.4-0.2c-0.4,0.9-2.6,0.8-0.7,1.3c-0.2,0.2-0.8,0.3-0.2,0.5
		C6.2,35,5.3,35.1,5,34.7c0.9-0.1-0.2-0.3-0.3-0.7c0.5-0.1,0.2-0.2-0.1-0.4c0.8-0.1,0.2-0.1-0.2-0.5c0.6,0.2-0.4-1-0.2-1.4
		c0,0.4-0.3,1.2-0.2,1.3c-0.2,0.2-1.1,0.2-0.2,0.4c0,0.1-0.7,0.3,0,0.3c0,0.2-1,0.1-0.5,0.3C3.6,34,3.4,34,3.3,34
		c-0.1,0.1,0.4,0.1,0.4,0.1c-0.2,0.3-1.5,0.4-0.5,0.6c0,0-0.1,0.2,0,0.2c-0.4,0.4-1.1,0.3-0.1,0.6c-0.5,0.6-1-0.4-1.3-0.7
		c0.5,0.2,1.5,0,0.6-0.1c0.3-0.1-1.1-0.7-1.1-1.3C2,33.9,2.3,34.2,3,34c-0.4-0.1-0.7-0.4-0.7-0.4c0.9-0.4-0.5-0.5-0.7-0.9
		c0.7-0.5-0.1-0.4-0.4-0.7c0.7,0.1-0.3-1.4-0.2-2c0.1,0.4-0.7,1.2-0.3,1.3c-0.4,0.2-0.7,0.7,0,0.5c-0.4,0.3-1.2,0.5-0.2,0.7
		c-0.5-0.1-0.8,0.9-0.4,1.1c-0.1,0-0.2,1.3,0,1.2C-0.1,34.9,0,36.5,0,36.5c0.1,0,0.1-0.1,0.2-0.1c0,0.1-0.1,0.1-0.2,0.3
		C0,38.6,0,43,0,45h100C100,42.1,100,36.1,100,33.2z M2.1,36.8c-0.1-0.1-0.1-0.2-0.1-0.2l0.3,0.2C2.3,36.7,2.1,36.7,2.1,36.8z
		 M2.5,36.4l0.3,0C2.7,36.5,2.6,36.5,2.5,36.4z M3.1,37.6c0,0-0.2-0.1-0.3-0.3c0.3,0.1,0.6,0,0.6,0L3.1,37.6z M9.1,36
		c-0.1-0.3,0.1-0.4,0.3-0.1L9.1,36z M12.5,36.2L12.3,36h0.3L12.5,36.2z M12.7,35.7l-0.2-0.1h0.4L12.7,35.7z M12.8,35.3l-0.3-0.1
		c0,0,0.5,0,0.6-0.1C13,35.2,12.8,35.3,12.8,35.3z M16.1,35.8c-0.4,0-0.7,0.4-0.1,0.5c-0.1,0.1-0.1,0.3-0.1,0.3l-0.4-0.3h0.1
		L15,35.9l0.2,0.1c-0.7-0.7,0.6,0,0.1-0.6c0.2,0.1,0.5,0,0.5,0s-0.2,0.1-0.3,0.2C15.3,36,16.6,35.5,16.1,35.8z M18.3,39.1
		C18.3,39.1,18.3,39,18.3,39.1C18.3,39,18.4,39,18.3,39.1C18.4,39,18.4,39,18.3,39.1z M18.8,37.3c-1.2,0.4-0.9,0.6-0.1,0.6
		c-0.4,0.6-1.6-0.5-1-0.6c0.3,0.2,0.7,0.1,0.9,0c-0.4,0-0.5-0.1-0.5-0.1s0.2-0.1,0.3-0.3c-0.2,0.1-0.7-0.1-1.1-0.7
		c0.4-0.1,0.9,0.2,1.3,0.1c-1.3,0.7,0.1,0.6,0.6,0.2c0,0.3,0.3,0.1,0.6-0.1C19.6,36.6,19.2,37.1,18.8,37.3z M21.6,36.8
		c-0.1-0.1-0.1-0.2-0.1-0.2l0.3,0.2C21.8,36.7,21.6,36.7,21.6,36.8z M22,36.4l0.3,0C22.2,36.5,22.1,36.5,22,36.4z M22.6,37.6
		c0,0-0.2-0.1-0.3-0.3c0.3,0.1,0.6,0,0.6,0L22.6,37.6z M28.6,36c-0.1-0.3,0.1-0.4,0.3-0.1L28.6,36z M32,36.2L31.8,36h0.3L32,36.2z
		 M32.2,35.7L32,35.6h0.4L32.2,35.7z M32.3,35.3L32,35.1c0,0,0.5,0,0.6-0.1C32.5,35.2,32.3,35.3,32.3,35.3z M35.6,35.8
		c-0.4,0-0.7,0.4-0.1,0.5c-0.1,0.1-0.1,0.3-0.1,0.3l-0.4-0.3H35l-0.4-0.4l0.2,0.1c-0.7-0.7,0.6,0,0.1-0.6c0.2,0.1,0.5,0,0.5,0
		s-0.2,0.1-0.3,0.2C34.8,36,36.1,35.5,35.6,35.8z M37,36.3c0.2,0,0.6,0,0.6,0c-0.1,0.1-0.6,0.5-0.7,0C36.9,36.2,36.9,36.3,37,36.3z
		 M37.1,37.4c0,0,0.1,0,0.1-0.1c0.1,0,0.2,0.1,0.3,0.1C37.4,37.4,37.1,37.6,37.1,37.4z M37.6,38c-0.1,0-0.2-0.1-0.2-0.1
		c0.2,0,0.3,0,0.3,0S37.7,37.9,37.6,38z M37.8,37.3c-0.2,0-0.3-0.1-0.3-0.1s0.2-0.1,0.3-0.3c-0.1,0-0.3,0-0.5-0.1
		c0.2,0,0.6-0.1,0.8-0.3c0,0.3,0.3,0.1,0.6-0.1C38.6,36.6,38.2,37,37.8,37.3z M40.6,36.8c-0.1-0.1-0.1-0.2-0.1-0.2l0.3,0.2
		C40.8,36.7,40.6,36.7,40.6,36.8z M41,36.4l0.3,0C41.2,36.5,41.1,36.5,41,36.4z M41.6,37.6c0,0-0.2-0.1-0.3-0.3c0.3,0.1,0.6,0,0.6,0
		L41.6,37.6z M47.6,36c-0.1-0.3,0.1-0.4,0.3-0.1L47.6,36z M51,36.2L50.8,36h0.3L51,36.2z M51.2,35.7L51,35.6h0.4L51.2,35.7z
		 M51.3,35.3L51,35.1c0,0,0.5,0,0.6-0.1C51.5,35.2,51.3,35.3,51.3,35.3z M54.1,36.4l-0.2-0.2H54l0,0c0.1,0,0.3,0,0.4,0
		C54.2,36.3,54.1,36.4,54.1,36.4z M54.2,35.6c-0.1,0-0.1,0.1,0,0.1c-0.2,0.1-0.5,0.1-0.6-0.1c0.1-0.1,0.8,0.3,0.4-0.2
		c0.2,0.1,0.5,0,0.5,0S54.3,35.5,54.2,35.6z M57.4,36.8c-0.1-0.1-0.1-0.2-0.1-0.2l0.3,0.2C57.6,36.7,57.5,36.7,57.4,36.8z
		 M57.8,36.4l0.3,0C58,36.5,57.9,36.5,57.8,36.4z M58.4,37.6c0,0-0.2-0.1-0.3-0.3c0.3,0.1,0.6,0,0.6,0L58.4,37.6z M64.4,36
		c-0.1-0.3,0.1-0.4,0.3-0.1L64.4,36z M67.8,36.2L67.6,36h0.3L67.8,36.2z M68.1,35.7l-0.2-0.1h0.4L68.1,35.7z M68.1,35.3l-0.3-0.1
		c0,0,0.5,0,0.6-0.1C68.4,35.2,68.1,35.3,68.1,35.3z M70.3,34.6c-0.1-0.1-0.1-0.1-0.1-0.1l0.1,0C70.3,34.5,70.3,34.5,70.3,34.6z
		 M70.3,34.4l-0.1-0.1C70.2,34.3,70.5,34.3,70.3,34.4z M71.5,35.8C71.4,35.7,71.4,35.7,71.5,35.8C71.5,35.7,71.5,35.7,71.5,35.8
		C71.5,35.7,71.5,35.7,71.5,35.8z M71.7,35.1c-0.2-0.2-0.4,0.1-0.6,0c0.1-0.3,0.7-0.3,0.8,0C71.8,35,71.7,35,71.7,35.1z M72.5,34.4
		c0-0.1,0.2,0,0.2-0.1C72.7,34.4,72.6,34.4,72.5,34.4z M72.7,34.6c0,0,0-0.1,0-0.1l0.1,0C72.8,34.4,72.7,34.5,72.7,34.6z M75.1,35.1
		c-0.2,0.1-0.4,0.2-0.6-0.1C74.6,35.1,75.1,35.1,75.1,35.1z M74.7,35.6h0.4C75,35.7,74.8,35.8,74.7,35.6z M75.1,36.2L75,36h0.3
		L75.1,36.2z M78.5,36l-0.3-0.1C78.4,35.6,78.7,35.7,78.5,36z M84.5,37.6l-0.3-0.2c0,0,0.4,0.1,0.6,0C84.7,37.6,84.5,37.6,84.5,37.6
		z M84.9,36.5l-0.1-0.1l0.3,0L84.9,36.5z M85.5,36.8c-0.1,0-0.2-0.1-0.2-0.1l0.3-0.2C85.7,36.6,85.6,36.7,85.5,36.8z M88.9,36.4
		c-0.1-0.1-0.2-0.1-0.2-0.1c0.1-0.1,0.3,0,0.4,0l0,0h0.1L88.9,36.4z M89.3,35.8c-0.2,0-0.3,0-0.5-0.1c-0.1-0.5-0.6-0.3,0.2-0.3
		C88.5,36.1,89.9,35.2,89.3,35.8z M92,35.1c-0.2,0.1-0.4,0.2-0.6-0.1C91.5,35.1,92,35.1,92,35.1z M91.6,35.6H92
		C91.8,35.7,91.7,35.8,91.6,35.6z M92,36.2L91.9,36h0.3L92,36.2z M95.4,36l-0.3-0.1C95.3,35.6,95.5,35.7,95.4,36z"/>
</g>
<g>
	<path class="st3" d="M70.4,44.7c-1.3-0.9-2.5-0.9-0.1-1.3c0-0.1-0.5,0-0.5-0.2c0-0.1,0.6-0.1,0-0.3c-0.7-0.2-1.9-1.2-2.4-2
		c0.9,1.2,3.5,1.3,1.1,0c0-0.2,0.7,0.3,0.8,0c0-0.1-0.3-0.3-0.4-0.3c-0.2-0.5-0.7-0.6-1.2-0.9c0.1,0,0-0.2,0-0.3
		c0.4,0.3,0.9,0.4,1.2,0.3c0,0-0.5-0.3-0.7-0.5c1.4-0.1-0.7-0.6-0.9-1c2,0.6-0.4-2-1.4-0.7c0.2-0.3,1.2-0.8,1.7-0.8
		c0.2-0.2-0.6-0.2-0.2-0.4c0.3-0.6-0.6-0.1-0.7,0.2c0.1-0.5,0.3-1-0.1-0.8c0-0.3,0.2-1.3-0.2-0.6c0-1-0.4,0-0.3,0.4
		c-0.7-0.5-0.2,0.7-0.3,0.8c-0.4-0.2-0.4,0.3-0.7,0.4c-0.5,0.3,0.5,0.2,0.5,0.3c0.1,0.2-0.5,0.2-0.6,0.4c-0.2,0.3-0.2,0.6-0.6,0.7
		c-0.2,0.1-0.3,0.3,0,0.3c0.1,0.1-0.7,0.3-0.7,0.3c0.1,0.3,1.7-0.1,1.6-0.2c-0.1,0.3-2.5,0.9-1,1c-0.2,0.3-0.7,0.5-0.7,0.5
		s0.5,0.2,1.2-0.4c-0.4,0.7-0.9,1.1-1.5,1.6c0,0.5,1.3-0.4,0.7,0.1c-2.2,1.2,0.1,1.1,1.1,0.1c-1,1.2-2.7,2.6-4.1,1.1
		c0,0,0.4,0,0.6-0.1c-0.8-0.4,0.7,0,0.8-0.4c-0.5,0-1.2-0.5-1.5-0.7c0.4,0,0.9,0.1,1.3-0.3c-0.2,0.1-0.6,0-0.6,0
		c0.4-0.2,0.7-0.4,0.9-0.8c-0.6,0.6-1.5,0.3-2,0c1.1-0.3,0.2-0.4-0.2-0.8c0.8,0.1,0.4-0.3,0-0.6c0.4-0.2-0.5-0.9-0.3-1.4
		c0,0.4-0.5,1.2-0.3,1.5c-0.3,0.2-0.5,0.5,0,0.5c-0.3,0.3-1.1,0.2-0.4,0.7c-0.2,0.3-1.7,0.5-0.7,0.9c0,0-0.3,0.2-0.7,0.4
		c0.7,0.2,1,0,1.7-0.7c0,0.6-1.4,1.2-1.1,1.3c-0.9,0.2,0.1,0.3,0.7,0.1c-0.3,0.3-0.8,1.4-1.3,0.7c1.1-0.3,0.3-0.2-0.1-0.7
		c0.2-0.1,0-0.2,0-0.2c1-0.2-0.3-0.3-0.5-0.6c0.1,0.1,0.7-0.1,0.2-0.1c0.8-0.4-0.2-0.1-0.3-0.4c0.4,0.1,0.3-0.1,0-0.3
		c0.9-0.2,0-0.2-0.2-0.4c0.1-0.1-0.3-0.9-0.3-1.3c0.2,0.4-0.8,1.7-0.2,1.5c-0.3,0.4-1,0.4-0.2,0.5c-0.4,0.2-0.7,0.4-0.1,0.4
		c-0.1,0.4-1.3,0.6-0.4,0.7c-0.3,0.4-1.2,0.3-0.8-0.1c0.6-0.2,0-0.3-0.2-0.5c2-0.4-0.3-0.3-0.7-1.3c0.2,0.2,1.2,0.3,1.5,0.2
		c-0.5-0.1-1.3-0.5-1.4-0.7c0.7,0.3,1.1-0.1,0.1-0.4c0.4-0.1-0.6-0.7-0.5-1.1c0,0,0.1,0.2,0.4,0.3c-0.4-0.7-0.5-1.1-0.7-1.6
		c-0.1,0.3-0.2,1.1-0.6,1.3c0,0,0.2,0.1,0.4-0.1c-0.6,0.4-0.8,0.4-0.2,0.6c-0.1,0.1-0.9,0.1-1.1,0.2c0.1,0.2,0.5,0.2,0.5,0.2
		s-0.3,0.2-0.9,0.1c0.3,0.3,0.6,0.3,1.1,0.2c-0.1,0.2,0.3,0.3,0.3,0.3c-0.9,0.1-1.9,0.4-0.1,0.7C52,40.7,51,40.9,51,40.9
		s0.4,0.4,0.7,0.4c-0.1,0.2-0.3,0.3-0.3,0.3s0.3,0.2,0.9-0.1c-0.4,0.1-0.8,0.5-1.1,0.4c0.3,0.2,0.7,0.3,1.3,0.1
		c-0.3,0.7-2.3,0.1-1.9,0.5c-0.3,0-0.5-0.1-0.8-0.4C50,42,50.8,42,51,41.5c-0.5,0.2-1.1,0.1-1.5-0.3c0.1,0,0.6,0,0.7-0.1
		c0,0-0.3,0-0.4-0.1c0.1,0,0.3-0.2,0.3-0.2c-0.3,0.1-0.5,0.2-0.8-0.1c0.6-0.2,0-0.2-0.1-0.4c0.1-0.3-0.1-0.8-0.3-1
		c-0.1,0.4,0,0.9-0.1,1.2c-0.2,0.3-0.8,0.4-0.1,0.5c-0.2,0.1-0.1,0.2-0.5,0.6c-0.8,0.5-0.5,0.2-0.1,0.6c-0.5,0.1-1-0.7-1-0.6
		c0.4,0.1,0.8,0.1,0.2-0.3c1.2-0.5,0.7-0.3-0.2-0.8c0.1,0,0.7-0.1,0.7-0.2c0,0,0,0-0.1,0c0,0,0-0.1,0-0.1c-0.1,0.1-0.9-0.4-1.1-0.5
		c0.7,0,0.1-0.3-0.1-0.4c-0.3-0.3-0.3-1-0.5-1.3c-0.1,0.2-1,1.9-0.4,1.5c0,0,0,0.1,0.1,0.1c-0.3,0.4-1.1,0.7-0.2,0.7
		c-0.3,0.2-0.5,0.3,0.1,0.3c-0.3,0.6-2.4,1-0.5,1l-0.1,0.1l0.2,0c-0.1,0.6-1.9,0.4-1.4,0.8c-0.2,0-0.4-0.3-0.3-0.5
		c0.3,0,0.8-0.1,0.1-0.2c0.5-0.3-0.2-0.2-0.4-0.6c-0.2-0.2-0.1-0.8-0.3-0.8c-0.2,0-0.2,1.1-0.2,1.1c-0.1,0.4-1,1-0.1,0.9
		c-0.1,0.2-0.4,0.5-0.8,0.4c0.1-0.1,0.3-0.1,0.4-0.2c-0.2,0-0.6,0-0.9-0.1c0.6-0.2,0.9-0.5,0.9-0.5s-0.2,0.1-0.4,0.1
		c0.1-0.1,0.1-0.2,0.1-0.2c0.1-0.1,0.2-0.2,0.2-0.2c-0.2,0.2-1.8,0.2-1.8,0.1c0,0,0.6-0.1,0.9-0.3c-1.9,0.2-2.9,0.2-2.8-0.8
		c0.2,0.1,0.7,0.5,0.8,0.1c0.6,0.3,1.1-0.3,1.8-0.2c-0.2-0.3-0.8-0.4-1.1-0.3c0.6-0.2,0.9-0.4,1.5-0.6c-0.1-0.1-0.5,0-0.5,0
		c0-0.2,0.2-0.3,0.6-0.4c-0.5-0.2-2,0.5-2.2-0.1c0,0,0.5,0,0.6-0.2c-1.3,0.3-3-1.6-1-1.1c0.3,0.3,0.6,0.2,0.4-0.3
		c0.9,0.3,0.4,0,0-0.4c0.2,0.1,0.6,0.2,1,0c-1-0.1-1.5-0.7-2.4-1c0.8-0.1,0.9-0.5,0.9-0.5c-0.2,0.1-1,0.2-1.1-0.5c0.2,0,0.3,0,0.3,0
		c-0.1-0.1-0.7-0.1-0.9-0.2c0.6-0.7-0.3-0.6-0.5-1.1c0.1-0.3,0-0.7-0.3-0.8c-0.2,0.3-0.3,0.5-0.2,0.8c-0.2,0.4-1.1,0.4-0.5,1.1
		c-0.2,0.2-0.7,0.2-0.8,0.3c0,0,0.1,0.1,0.3,0c0,0.6-0.9,0.6-1.1,0.5c0,0,0.2,0.4,0.9,0.5c-0.8,0.3-1.4,1-2.4,1.1
		c0.4,0.2,0.8,0.1,1,0c-0.5,0.4-0.9,0.8,0,0.4c-0.1,0.4,0.2,0.6,0.4,0.2c2-0.6,0.3,1.4-1,1.1c1.5,0.2-0.2,0.8-0.6,0.1
		c1.4-0.4-0.3-0.6-0.5-1.2c0.9,0.4,1.5,0.5,0.4-0.4c1.2,0.1-1-0.9-1-1.3c1.3,0.3,0-0.6-0.3-1.1c0.6,0.1,0.4-0.3-0.1-0.7
		c0.7,0-0.2-0.4-0.3-0.6c-0.2-0.4-0.4-1.4-0.6-1.7c-0.2,0.3-0.3,1.3-0.6,1.7c-0.1,0.2-1,0.7-0.3,0.6c-0.5,0.4-0.7,0.8-0.1,0.7
		c-0.3,0.5-1.6,1.5-0.3,1.1c0,0.4-2.1,1.4-1,1.3c-1.1,0.9-0.5,0.7,0.4,0.4c-0.3,0.7-1.9,0.9-0.5,1.2c-0.2,0.5-1.9,1-0.4,1
		c0.1,0.3-1,0.5-0.5,0.7c0.1,0.2,0.5,0,0.6-0.1c-0.7,0.6-1.7,1.6-2.2,0.4c1.1,0.1,0.3-0.3,0-0.9c-0.3-0.3,0-1.4-0.5-1.8
		c-0.3,0-0.1,0.8-0.4,1.1c-0.2,0.5-1.2,0.4-0.5,0.8c-0.9,0-0.2,0.2,0.1,0.2c0.1,0.3,0,0.5-0.4,0.6c0.7-0.6-0.2-0.2-0.6-0.3
		c-0.4,0-1.1-0.6-1.2-0.8l0.2,0l-0.2-0.2c2.3,0-0.1-0.6-0.7-1.4c0.8,0,0.6-0.2,0.2-0.4c1.4,0,0.2-0.4-0.2-0.9c0.1,0,0.1-0.2,0.1-0.2
		c0.7,0.4,0.2-0.3,0-0.7c-0.7-2.8-0.5,0.2-1.8,0.8c0,0.3,0.4,0,0.4,0.1c-0.2,0.2-1.3,0.9-1.5,0.7c0,0,0,0.1,0.1,0.1
		c-0.2,0-0.2,0-0.2,0c0,0.2,0.8,0.3,1,0.3c-1.3,0.8-2,0.4-0.3,1.1c-0.8,0.5-0.2,0.5,0.3,0.4c0.1-0.1-0.6,0.9-1.3,0.8
		c0.1-0.2,0.7-0.3,0.6-0.5c-0.3,0.2-1.4-1.1-1.4-1.2c0,0,0.7-0.1,0.5-0.3c-0.4-0.2-0.5-0.1-0.6-0.6c-0.1-0.3,0.1-1-0.1-1.4
		c-0.2,0.3-0.5,1-0.4,1.4c-0.2,0.3-1,0.3-0.2,0.6c-0.4,0.4-0.7,0.2-1.1,0.2c0,0,0.2,0.3,0.4,0.3c-0.1,0.1-0.5,0.1-0.5,0.1
		c0.2,0.1,0.8,0.2,1,0.1c-0.5,0.5-1.3,0.7-2,0.4c0.2,0.7,1.2,0.6,1.7,0.8c-0.4,0.4-0.7,0.5-1,0.6c0.5-0.5-2.1,0.3-2.6-0.6
		c0.8,0.2,1.3,0.1,1.8-0.1c-0.5,0.1-0.9-0.4-1.5-0.6c0.8,0.3,1.2,0.1,1.2,0.1s-0.4-0.2-0.4-0.4c0.4,0,0.9-0.5,0.9-0.5
		s-1.4-0.2-2.1-0.9c0.6,0,1.3-0.2,1.3-0.6c0.2-0.2-1.5-0.2-1.5-0.4c0,0,0.6,0,0.4-0.3c0.7,0.2,1.1,0.1,1.4-0.3
		c-0.8,0.1-1.2-0.1-1.2-0.1s0.5,0,0.7-0.3c-2.6-0.3,0.1-0.2-1.7-1.1c0.4,0.2,0.6,0.1,0.6,0.1c-0.6-0.4-0.7-1.2-0.9-1.7
		c-0.3,0.7-0.5,1.3-1,2.2c0.3-0.1,0.5-0.3,0.5-0.3c0.1,0.5-1.3,1.2-0.7,1.4c-1.4,0.5-0.8,1,0.2,0.5c-0.1,0.4-1.2,0.9-1.8,1
		c0.4,0.2,1.7,0,2-0.3c-0.5,1.3-3.6,1.1-0.9,1.7c-0.3,0.3-1.1,0.4-0.3,0.7c0.6,0.5-0.7,0.7-1,0.2c1.2-0.2-0.3-0.5-0.5-1
		c0.8-0.1,0.3-0.3-0.2-0.6C8.9,39,8,39,7.6,38.4c0.8,0.3-0.5-1.3-0.2-2c-0.3,0.9,0,2.1-1.2,2c0,0.2,0.5,0.3,0.6,0.2
		c-0.4,0.2-0.5,0.4,0,0.3c0,0.3-1.4,0.2-0.7,0.5c0.4,0.2,0.1,0.1,0,0.2c-0.1,0.2,0.5,0.1,0.5,0.1c-0.2,0.4-1.4,0.3-1.2,0.7
		c0.1,0.1,0.5,0.1,0.5,0.1s-0.2,0.2,0,0.3c-0.5,0.6-1.6,0.4-0.1,0.9c-0.8,0.8-1.3-0.5-1.8-1c0.7,0.2,2.1,0,0.9-0.2
		c0.3-0.1-1.5-1-1.5-1.8c0.9,0.8,1.3,1.1,2.3,0.9c-0.6-0.2-0.9-0.5-0.9-0.5c1.3-0.6-0.7-0.8-1-1.2c0.9-0.7-0.1-0.5-0.5-1
		c0.7,0,0.5-0.4,0-0.6c0.4-0.5-0.4-1.5-0.4-2.1c0.2,0.6-1,1.7-0.5,1.8c-0.5,0.4-1.1,0.9,0,0.8c-0.6,0.5-1.7,0.7-0.3,1
		C1.6,38.2,1,38.5,0,38.1c-0.1,0.4,0.5,0.7,0.8,0.8C0.7,39,0.3,39.1,0,39c0.4,0.5,1.2,0.3,1.7,0.3C1.4,39.8,0.2,40,0,40.5
		c0.3,0.3,1.8-0.1,0.8,0.4C1.1,41.1,1.7,41,1.7,41c-0.5,0.4-2.5,1.1-1.5,1.7c-0.8,0.7,0.3,0.8,0.8,0.3C1,43.5,1.4,43.3,1.8,43
		c-0.2,0.4-1.1,1.3-1.8,1.4V45h57.6l-0.3-0.2c0,0,0.4,0.1,0.7,0c-0.1,0.2-0.4,0.3-0.4,0.3h4.7c-0.3-0.1-1.7-0.8-1.8-1.3
		c0.3,0.2,0.5,0.4,0.6,0.1c0.5,0.4,1.9,0.4,0.6-0.2c0.4,0.1,1.2,0,1.7-0.1c0.4,0.7-2.4,1.3-1,1.4c0,0.2,0.3,0,0.3,0.1h6.9
		c0-0.3,0.5,0,0.4-0.2C70,44.7,70.4,44.8,70.4,44.7z M4.3,43.5c-0.1-0.1-0.2-0.3-0.2-0.3l0.4,0.2C4.6,43.4,4.5,43.5,4.3,43.5z
		 M5,42.9l0.4,0C5.2,43.2,5.1,43.1,5,42.9z M5.7,44.7c0,0-0.3-0.1-0.5-0.4c0.4,0.1,0.9,0.1,0.9,0.1L5.7,44.7z M14,42.5
		c-0.2-0.4,0.2-0.5,0.4-0.2L14,42.5z M18.8,42.7l-0.2-0.2h0.4L18.8,42.7z M19.1,42.1l-0.3-0.2h0.6L19.1,42.1z M19.2,41.4l-0.4-0.2
		c0,0,0.7,0,0.9-0.1C19.5,41.3,19.2,41.4,19.2,41.4z M23.7,42.2c-0.6,0.1-1,0.5-0.2,0.7c-0.1,0.1-0.1,0.4-0.1,0.4l-0.6-0.5h0.1
		l-0.6-0.5l0.3,0.1c-1.1-1.1,0.8,0.1,0.2-0.8c0.3,0.1,0.7,0,0.7,0s-0.2,0.2-0.4,0.3C22.7,42.4,24.5,41.7,23.7,42.2z M26.1,44.9
		C26.1,44.9,26.1,44.9,26.1,44.9c-0.3-0.2-0.4-0.5-0.4-0.5s0.2,0,0.2-0.2c0,0,0.1,0,0.1,0c-0.3,0.2,0.5,0.3,0.5,0.3
		C26.5,44.6,26.4,44.8,26.1,44.9z M27.3,42.2c0,0.7-1.7,1-0.7,1.2c0.4,0.2,0.5-0.2,1-0.1c-0.4,0.2-0.7,0.7-1.1,0.7
		c0,0,0.3-0.2,0.4-0.4c-0.2,0.1-0.9-0.1-1.5-0.9c0.6,0,0.8-0.3,0.6-0.5c0.7-0.1,1.1-0.2,1.7-0.3C27.6,42.1,27.4,42.1,27.3,42.2z
		 M33.3,40.5c-0.1,0-0.3,0-0.3-0.1C33.2,40.4,33.3,40.4,33.3,40.5z M33.9,43.9C33.9,43.9,33.9,43.9,33.9,43.9
		C33.9,43.9,33.9,43.9,33.9,43.9C33.9,43.9,33.9,43.9,33.9,43.9z M34.7,41.2C34.5,42,33.4,41.5,33,41c0.3,0.2,0.7,0.2,1,0
		C34.1,41.5,35.3,40.2,34.7,41.2z M41.4,44.8c0.1,0,0.2-0.1,0.3-0.1c0.2,0.1,0.5,0.1,0.8,0c0,0.1,0.1,0.1,0.1,0.1
		C42.2,44.9,41.7,44.9,41.4,44.8z M41.9,44.6c0.1,0,0.2-0.2,0.3-0.1C42.2,44.5,42.1,44.6,41.9,44.6z M41.9,44.2
		c0,0.1,0.1,0.1,0.1,0.1c-1,0.3-1.9,0.5-2.7-0.3c0.4,0.2,0.9,0.2,0.9,0.2s-0.3-0.1-0.6-0.4c0.4,0.2,1.2,0.2,1.2,0.2l-0.4-0.2
		c0,0,0.7,0.1,1-0.1c-0.3,0-0.7-0.1-1-0.4c0.6,0.2,1.5-0.5,2.3-0.2c-0.2,0.1,0,0.3,0.4,0.4C42.6,44.1,42,44.3,41.9,44.2z M45.2,43.2
		l-0.4,0.4h0.1L44.5,44c-0.1-0.8,0.8-0.3-0.4-1c-0.1,0,0.9,0.2,0.6-0.1c-0.1-0.1-0.3-0.2-0.3-0.2s0.3,0.1,0.5,0
		c-0.5,0.7,0.9-0.1,0.1,0.6L45.2,43.2z M47.9,42.4c-0.2,0.1-0.4,0.2-0.7-0.1C47.4,42.4,47.9,42.4,47.9,42.4z M47.5,42.9h0.4
		C47.7,43,47.6,43.1,47.5,42.9z M47.9,43.5l-0.1-0.2h0.3L47.9,43.5z M51.4,43.3l-0.3-0.1C51.3,43,51.5,43.1,51.4,43.3z M58,43.8
		l-0.1-0.1l0.3,0L58,43.8z M58.6,44.1c-0.1,0-0.2-0.1-0.2-0.1l0.3-0.2C58.7,43.9,58.7,44,58.6,44.1z"/>
	<g>
		<path class="st3" d="M100,38.3v-0.4C99.8,38,99.7,38.3,100,38.3z"/>
		<path class="st3" d="M98.9,41c1-0.1,1.2-1.6,1.1-2.4c-0.8,0.2-0.6,0.4-0.2,0.8c-0.3,0.5-2.2,0.6-0.9,1.2c0,0-0.4,0.3-0.9,0.5
			C98.2,41.2,98.7,41.1,98.9,41z"/>
		<path class="st3" d="M100,45v-4.6c-0.1,0.7-1.8,1.2-1.4,1.4c-1.2,0.2,0.2,0.4,0.9,0.2c-0.5,0.5-1,1.8-1.8,1
			c1.5-0.5,0.4-0.3-0.1-0.9c0.2-0.1,0-0.3,0-0.3s0.3,0,0.5-0.1c0.2-0.4-1-0.3-1.2-0.6c0,0.1,0.6,0.1,0.5-0.1c-0.1-0.1-0.4,0,0-0.2
			c0.7-0.3-0.6-0.2-0.6-0.5c0.6,0.1,0.4-0.1,0-0.3c1.1-0.2,0-0.2-0.2-0.5c0.3-0.1,0.1-0.1,0-0.3c-0.3-0.3-0.1-1.1-0.3-1.4
			c0.2,0.7-1,2.3-0.2,2c-0.4,0.5-1.3,0.5-0.2,0.7c-0.5,0.3-0.9,0.5-0.2,0.6c-0.1,0.5-1.7,0.8-0.5,1c-0.3,0.5-1.6,0.4-1-0.2
			c0.8-0.3,0-0.4-0.3-0.7c2.6-0.6-0.4-0.4-0.9-1.7c0.3,0.2,1.6,0.4,1.9,0.3c-0.7-0.1-1.7-0.6-1.8-1c1,0.4,1.5-0.1,0.2-0.5
			c0.6-0.2-0.8-0.9-0.7-1.4c0,0,0.2,0.2,0.5,0.3c-0.5-0.9-0.7-1.5-1-2.1c-0.2,0.5-0.3,1.3-0.8,1.7c0,0,0.2,0.1,0.6-0.1
			c-1.7,0.9,0.8,0.8-1.7,1.1c0.2,0.3,0.6,0.3,0.6,0.3s-0.4,0.2-1.2,0.1c0.4,0.3,0.7,0.4,1.4,0.3c-0.2,0.3,0.4,0.3,0.4,0.3
			c0,0.2-1.7,0.1-1.4,0.3c0,0.4,0.7,0.6,1.3,0.6c-0.7,0.6-2.1,0.8-2.1,0.8s0.5,0.5,0.9,0.5c-0.1,0.2-0.4,0.4-0.4,0.4
			s0.4,0.2,1.2-0.1c-0.6,0.2-1,0.6-1.5,0.6c0.4,0.2,0.9,0.4,1.7,0.1c-0.5,0.9-3,0.1-2.5,0.6c-0.4,0-0.6-0.2-1-0.5
			C88,42,89,42,89.2,41.3c-0.6,0.3-1.4,0.1-1.9-0.4c0.2,0.1,0.8,0,0.9-0.1c0,0-0.3,0-0.5-0.1c0.2-0.1,0.4-0.3,0.4-0.3
			c-0.4,0.1-0.7,0.2-1.1-0.2c0.8-0.2,0-0.3-0.2-0.5c0.1-0.3-0.2-1.1-0.4-1.3c-0.2,0.4,0,1.1-0.1,1.4c-0.1,0.5-0.2,0.4-0.6,0.6
			c-0.2,0.2,0.5,0.3,0.5,0.3c0,0.1-1.1,1.3-1.4,1.2c-0.1,0.2,0.6,0.2,0.6,0.5c-0.7,0.1-1.3-0.9-1.3-0.8c0.5,0.1,1.1,0.1,0.3-0.4
			c1.6-0.6,1-0.3-0.3-1.1c0.2,0,1-0.1,1-0.3c0,0,0,0-0.2,0c0,0,0.1-0.1,0.1-0.1c-0.2,0.2-1.2-0.5-1.4-0.7c0-0.1,0.4,0.2,0.4-0.1
			c-1.3-0.6-1.1-3.5-1.7-0.8c-0.2,0.3-0.7,1,0,0.7c0,0,0,0.1,0.1,0.2c-0.4,0.5-1.5,0.8-0.2,0.9c-0.4,0.2-0.6,0.4,0.2,0.4
			c-0.6,0.8-2.9,1.3-0.7,1.4l-0.2,0.2l0.2,0c-0.1,0.8-2.6,0.6-1.8,1.1c-0.4-0.1-0.5-0.3-0.4-0.6c0.3,0,1-0.2,0.1-0.2
			c0.7-0.4-0.3-0.3-0.5-0.7c-0.4-2-0.7-0.5-0.7,0.4c-0.1,0.5-1.4,1.3-0.1,1.2c-0.2,0.5-0.8,0.7-1.2,0.1c1.1,0.3,0.3-0.1,0.1-0.5
			c1.2,0-0.2-0.4-0.4-0.9c1.2-0.3-0.2-0.5-0.5-1.1c0.8,0.3,1.3,0.5,0.4-0.3c1,0-0.8-0.8-0.8-1.1c1.2,0.3,0-0.6-0.2-1
			c0.5,0.1,0.3-0.2-0.1-0.6c0.6,0-0.2-0.3-0.3-0.5c-0.2-0.3-0.3-1.2-0.5-1.5c-0.2,0.3-0.3,1.1-0.5,1.5c-0.1,0.2-0.9,0.6-0.3,0.5
			c-0.4,0.3-0.6,0.7-0.1,0.6c-0.2,0.4-1.5,1.3-0.2,1c0,0.3-1.8,1.1-0.8,1.1c-1,0.8-0.4,0.6,0.4,0.3c-0.2,0.6-1.6,0.8-0.5,1.1
			c-0.2,0.4-1.6,0.9-0.4,0.9c-0.2,0.4-1.1,0.8,0.1,0.5c-0.8,0.6-1.6,1.2,0.1,0.8c-0.2,0.1-0.6,0.4-0.5,0.6c-0.1,0.3-1.3,0.5-0.4,0.7
			c0.3,0.2,0.4-0.2,0.8-0.1c-0.1,0-0.1,0.1-0.2,0.1H100z M99.4,44.5c0,0,0,0.2-0.2,0.3c-0.1,0-0.3-0.1-0.3-0.1L99.4,44.5z
			 M98.6,44.2c-0.1,0.2-0.2,0.2-0.4,0L98.6,44.2z M89.6,43.3c0.4,0.3,0.1,0.5-0.2,0.3L89.6,43.3z M84.6,43.2h0.6
			C85,43.3,84.7,43.4,84.6,43.2z M85.1,44L85,43.7h0.4L85.1,44z M85.1,42.6c-0.3,0.2-0.5,0.2-0.9-0.1C84.5,42.6,85.1,42.6,85.1,42.6
			z M80.6,43.4c0.8,0.1-0.1-0.4-0.1-0.5c0,0,0.4,0.1,0.7,0c-0.6,0.9,1.2-0.3,0.2,0.8l0.3-0.1l-0.6,0.5h0.1l-0.6,0.5
			c-0.2-1,1.1-0.3-0.5-1.3C80.1,43.3,80.2,43.3,80.6,43.4z M77.5,44.9C77.5,44.9,77.5,44.9,77.5,44.9C77.5,44.9,77.5,44.9,77.5,44.9
			C77.5,44.9,77.5,44.9,77.5,44.9z M77.7,43.6c0.2,0.1,0.6,0.2,1,0.3c-0.6,1.1-0.7,0.1-1.3-0.3C77.4,43.7,77.7,43.6,77.7,43.6z"/>
	</g>
</g>
</svg>
